Coordinates
version=1
nRows=10
nColumns=40
inDegrees=yes

Units are S.I. units (second, meters, Newtons, ...)
If the header above contains a line with 'inDegrees', this indicates whether rotational values are in degrees (yes) or radians (no).

endheader
time	pelvis_tilt	pelvis_list	pelvis_rotation	pelvis_tx	pelvis_ty	pelvis_tz	hip_flexion_r	hip_adduction_r	hip_rotation_r	knee_angle_r	knee_angle_r_beta	ankle_angle_r	subtalar_angle_r	mtp_angle_r	hip_flexion_l	hip_adduction_l	hip_rotation_l	knee_angle_l	knee_angle_l_beta	ankle_angle_l	subtalar_angle_l	mtp_angle_l	lumbar_extension	lumbar_bending	lumbar_rotation	arm_flex_r	arm_add_r	arm_rot_r	elbow_flex_r	pro_sup_r	wrist_flex_r	wrist_dev_r	arm_flex_l	arm_add_l	arm_rot_l	elbow_flex_l	pro_sup_l	wrist_flex_l	wrist_dev_l
      5.62500000000000000000	     37.40037226010023374556	      3.56841218139058291570	   -177.05004503463194964752	      0.36847271939152509423	      0.81631067325645634281	     -0.63464410635312651365	     64.30182016155748669917	     -8.77112468989498417216	    -12.78604958840712235713	     25.38236825535830831768	      0.44300589800969131238	     -0.65696644318025387843	      0.00000000000000000000	      0.00000000000000000000	     65.80343471778509467640	     -7.56620090449907678476	     -1.05846604083492334958	     22.69281174256293098779	      0.39606428144295496852	     -6.91340105827709283659	      0.00000000000000000000	      0.00000000000000000000	    -13.85792171572599862372	      5.51408973959538517562	      1.56040436763861389835	     42.73586345718675971739	    -12.21176055205886079591	     64.91559832537001284436	      0.87053862120597202967	     84.18564237090794222240	      0.00000000000000000000	      0.00000000000000000000	     33.43070677700988824199	     -5.66430809121517420124	     84.13237028245602289189	      0.54331338036725951302	      2.39757906292481415278	      0.00000000000000000000	      0.00000000000000000000
      5.62999999999999989342	     37.25588538750807998667	      3.55871415851297046018	   -177.05669376833708383856	      0.36773088547390953007	      0.81678332019000210451	     -0.63482345932551120793	     64.09963121501108673783	     -8.74708564626067364145	    -12.78769846085574712902	     25.38693375044540445629	      0.44308558093094480013	     -0.65848668178256841710	      0.00000000000000000000	      0.00000000000000000000	     65.60926750504056315094	     -7.59439447513927756717	     -1.04291106482218309814	     22.71531181583604919183	      0.39645698180351091056	     -6.91452435412230581591	      0.00000000000000000000	      0.00000000000000000000	    -13.39916826898958035486	      5.46963185397817763800	      1.55001817197921587521	     42.32101669597969362258	    -12.21991016583928413297	     64.99599766061422201346	      0.86659321160006896889	     84.20263789207834292938	      0.00000000000000000000	      0.00000000000000000000	     33.09085247237054971947	     -5.68317952759414701802	     84.17915239208780064928	      0.54327619759983569736	      2.40417982859598122758	      0.00000000000000000000	      0.00000000000000000000
      5.63499999999999978684	     37.20265681982458261245	      3.51900814959609808952	   -177.15485248873852697216	      0.36717891164193761089	      0.81701975728449616199	     -0.63521014831455668848	     63.98175299105491831142	     -8.61468854425334207292	    -12.60948005221679935062	     25.28619339948804878304	      0.44132733011712432791	     -0.53396747087475437965	      0.00000000000000000000	      0.00000000000000000000	     65.48745014431368360874	     -7.66792824766151870364	     -1.01052915168794488210	     22.72447691622191712213	      0.39661694298152005977	     -6.72012829806268641164	      0.00000000000000000000	      0.00000000000000000000	    -12.78944684486220673136	      5.39785965918028143307	      1.47012527855990637882	     41.92839063379064867831	    -12.27883230517630330780	     67.85801759939342048256	      0.92254789407189208283	     83.81609812959830208001	      0.00000000000000000000	      0.00000000000000000000	     32.42195841737098760404	     -6.07733583778341124315	     86.31707607361425971249	      0.53702396424782938844	      2.43558148329422419209	      0.00000000000000000000	      0.00000000000000000000
      5.63999999999999968026	     37.05225435663348321214	      3.51759642583121001636	   -177.13944247015490418562	      0.36637736877122717427	      0.81749533842847277310	     -0.63544646640306612362	     63.77618390617946175780	     -8.59657234425188576665	    -12.60134923459458455852	     25.31258214577085752239	      0.44178790062523271009	     -0.53388762963656788418	      0.00000000000000000000	      0.00000000000000000000	     65.29261645432477223494	     -7.69479790261188600908	     -0.99826903605359740279	     22.76313320056206634945	      0.39729162241984278259	     -6.74063481257217578246	      0.00000000000000000000	      0.00000000000000000000	    -12.32803273798550769413	      5.34855029576993601381	      1.44190220111311817597	     41.50545488919530612293	    -12.26398092878735113231	     67.87411925118468047913	      0.91948150776067139045	     83.82279898397467832183	      0.00000000000000000000	      0.00000000000000000000	     32.13483035009043220498	     -6.10760538853926782110	     86.29277638549416451497	      0.54204123692945804791	      2.43829411873490187190	      0.00000000000000000000	      0.00000000000000000000
      5.64499999999999957367	     36.89806754511140240993	      3.52273587796732501332	   -177.11852704029917049411	      0.36552609436597865988	      0.81794764118333496139	     -0.63569117778486783354	     63.56941510735640576968	     -8.57175825922469591944	    -12.57970249231437165349	     25.34878565687360207903	      0.44241977109475794094	     -0.52945606828309221825	      0.00000000000000000000	      0.00000000000000000000	     65.08569414376424333568	     -7.72779141685613168988	     -0.98767077672207226335	     22.79594420154854716998	      0.39786428241793198035	     -6.73606288049892842906	      0.00000000000000000000	      0.00000000000000000000	    -11.85808322836256323285	      5.30427254766102951322	      1.40510124101208866421	     41.07507266379353438879	    -12.25317191610411882152	     67.89026728327540638475	      0.91810580191369228764	     83.83385283902114792909	      0.00000000000000000000	      0.00000000000000000000	     31.85135232984327657846	     -6.13590374598816712393	     86.27442434488372668966	      0.54586754355198596755	      2.44154093410913253237	      0.00000000000000000000	      0.00000000000000000000
      5.65000000000000035527	     36.73355892846636550075	      3.49564931762103459079	   -177.11657669486811528259	      0.36460233487843035638	      0.81837952133617319905	     -0.63583413134500355035	     63.35283175295938917770	     -8.55490718931862659247	    -12.53690322930674305724	     25.37822869792377034059	      0.44293364910288324232	     -0.45434690746244116299	      0.00000000000000000000	      0.00000000000000000000	     64.86817713011873820506	     -7.72913746121228495412	     -0.94953012382200985275	     22.84574827421738163480	      0.39873352746690571280	     -6.67980752125247079221	      0.00000000000000000000	      0.00000000000000000000	    -11.39530018805014144334	      5.24974733189119024956	      1.37557331300999075019	     40.67575134837123584930	    -12.28313903974170173683	     67.94122975081521076390	      0.93198634687348957950	     83.83310924918698958663	      0.00000000000000000000	      0.00000000000000000000	     31.38023081174128137150	     -6.14396279569218783934	     86.27204058853847357113	      0.54258074667960465298	      2.44913652616337973456	      0.00000000000000000000	      0.00000000000000000000
      5.65500000000000024869	     36.56650048054606827463	      3.49295370586519249301	   -177.09345334384312309339	      0.36362731588199420640	      0.81882373579820633136	     -0.63619212122886636962	     63.13134988525900581635	     -8.52019093009331385247	    -12.50100372015520022728	     25.42196601187752591500	      0.44369700923735472253	     -0.42201754740081581785	      0.00000000000000000000	      0.00000000000000000000	     64.65336672260599470974	     -7.75250330510962992747	     -0.92072019470864574497	     22.89219560258472085934	      0.39954418627567073186	     -6.66217472243139141597	      0.00000000000000000000	      0.00000000000000000000	    -10.92098165406682142020	      5.18556280306147865389	      1.33095920672188827716	     40.21255985718355674408	    -12.24328294440965336776	     67.96790886817690591215	      0.93959517060779429443	     83.84565380052187322235	      0.00000000000000000000	      0.00000000000000000000	     31.11208659164173795375	     -6.19859200789769193563	     86.26108729520507267807	      0.54441041786691179993	      2.45046914046408614851	      0.00000000000000000000	      0.00000000000000000000
      5.66000000000000014211	     36.39987883216323893976	      3.44550502456851726052	   -177.09271109441218072789	      0.36255963869822732670	      0.81931964929427980593	     -0.63638068528735469709	     62.90690019019826451085	     -8.49813265881335766494	    -12.41934509987546420007	     25.46628465111060535264	      0.44447051541197551972	     -0.25229465307897719351	      0.00000000000000000000	      0.00000000000000000000	     64.41177386730279863514	     -7.74240158596548866399	     -0.87095485340701739307	     22.95449568664166051235	      0.40063152786673356109	     -6.55361691624908004883	      0.00000000000000000000	      0.00000000000000000000	    -10.45557874606167558795	      5.10709922429305596125	      1.27192202488939232197	     39.81238826918158224544	    -12.24323543593211027769	     68.04518991366927593845	      0.96194128143765555983	     83.84190543570581155564	      0.00000000000000000000	      0.00000000000000000000	     30.60549423405385027763	     -6.24264015485218326518	     86.27674649340060852865	      0.54017112732546379572	      2.45675353385683070684	      0.00000000000000000000	      0.00000000000000000000
      5.66500000000000003553	     36.21571340903523150700	      3.44094006234700788838	   -177.06433581188306902732	      0.36157398571642712648	      0.81979762008826717601	     -0.63673054641709947443	     62.67295888127576120041	     -8.47148136131368012514	    -12.36498038196230808694	     25.52400296251126832203	      0.44547788998460846610	     -0.21624141358850454409	      0.00000000000000000000	      0.00000000000000000000	     64.20063051664956788045	     -7.77098892701996568633	     -0.83004195450178552829	     23.02985956950939794297	      0.40194687575986287609	     -6.53356489199047452132	      0.00000000000000000000	      0.00000000000000000000	     -9.99259139036703736281	      5.03563185522500766922	      1.21683819549760197098	     39.35115198865590002697	    -12.20551979361011341041	     68.07537803969245260305	      0.96342014743846937641	     83.85668818131291857298	      0.00000000000000000000	      0.00000000000000000000	     30.37592624913361305516	     -6.31289771003311894759	     86.27016569248362998223	      0.54386304127629025995	      2.45757442796573810639	      0.00000000000000000000	      0.00000000000000000000
      5.66999999999999992895	     36.02382480878070936114	      3.42653736706779588062	   -177.05772984304022088509	      0.36044056005195701520	      0.82023108041091163933	     -0.63702182003990082126	     62.42640108393965903133	     -8.44035074277364394391	    -12.30410175660216332005	     25.59327886394909512546	      0.44668698255698557897	     -0.15647577732476788959	      0.00000000000000000000	      0.00000000000000000000	     63.94851500882846551121	     -7.79710066865272821701	     -0.78141350293751643541	     23.10358835629658358357	      0.40323368584280017135	     -6.48946848981280055568	      0.00000000000000000000	      0.00000000000000000000	     -9.52688267531187449322	      4.97477631817872456566	      1.17695405443729717021	     38.90610657255051307857	    -12.19175238114917192433	     68.10660905629153205609	      0.96599414723708598718	     83.87025459593928644608	      0.00000000000000000000	      0.00000000000000000000	     30.00068757031099409005	     -6.37285535670760783233	     86.26103655949478365983	      0.55048779386466528685	      2.46240576456277660000	      0.00000000000000000000	      0.00000000000000000000
